<?xml version="1.0" encoding="utf-8"?>
<svg version="1.1" xmlns:xlink="http://www.w3.org/1999/xlink" width="76px" height="20px" xmlns="http://www.w3.org/2000/svg">
  <defs>
    <mask fill="white" id="clip16">
      <path d="M 0 16  L 0 4  C 0 1.75999999999999  2.57230769230768 0  5.84615384615385 0  L 24.4807692307692 0  L 35.6452991452992 0  L 37.6752136752137 0  L 43.5022624434389 0  L 70.1538461538462 0  C 73.4276923076923 0  76 1.75999999999999  76 4  L 76 10.8611111111111  L 76 16  C 76 18.24  73.4276923076923 20  70.1538461538462 20  L 65.0790598290598 20  L 32.6004273504273 20  L 5.84615384615385 20  C 2.57230769230768 20  0 18.24  0 16  Z " fill-rule="evenodd" />
    </mask>
  </defs>
  <g transform="matrix(1 0 0 1 -48 -441 )">
    <path d="M 0 16  L 0 4  C 0 1.75999999999999  2.57230769230768 0  5.84615384615385 0  L 24.4807692307692 0  L 35.6452991452992 0  L 37.6752136752137 0  L 43.5022624434389 0  L 70.1538461538462 0  C 73.4276923076923 0  76 1.75999999999999  76 4  L 76 10.8611111111111  L 76 16  C 76 18.24  73.4276923076923 20  70.1538461538462 20  L 65.0790598290598 20  L 32.6004273504273 20  L 5.84615384615385 20  C 2.57230769230768 20  0 18.24  0 16  Z " fill-rule="nonzero" fill="#f5f5f5" stroke="none" transform="matrix(1 0 0 1 48 441 )" />
    <path d="M 0 16  L 0 4  C 0 1.75999999999999  2.57230769230768 0  5.84615384615385 0  L 24.4807692307692 0  L 35.6452991452992 0  L 37.6752136752137 0  L 43.5022624434389 0  L 70.1538461538462 0  C 73.4276923076923 0  76 1.75999999999999  76 4  L 76 10.8611111111111  L 76 16  C 76 18.24  73.4276923076923 20  70.1538461538462 20  L 65.0790598290598 20  L 32.6004273504273 20  L 5.84615384615385 20  C 2.57230769230768 20  0 18.24  0 16  Z " stroke-width="2" stroke="#d9d9d9" fill="none" transform="matrix(1 0 0 1 48 441 )" mask="url(#clip16)" />
  </g>
</svg>