<?xml version="1.0" encoding="utf-8"?>
<svg version="1.1" xmlns:xlink="http://www.w3.org/1999/xlink" width="27px" height="20px" xmlns="http://www.w3.org/2000/svg">
  <g transform="matrix(1 0 0 1 -298 -473 )">
    <path d="M 299 477  A 3 3 0 0 1 302 474 L 321 474  A 3 3 0 0 1 324 477 L 324 489  A 3 3 0 0 1 321 492 L 302 492  A 3 3 0 0 1 299 489 L 299 477  Z " fill-rule="nonzero" fill="#f5f5f5" stroke="none" fill-opacity="0" />
    <path d="M 298.5 477  A 3.5 3.5 0 0 1 302 473.5 L 321 473.5  A 3.5 3.5 0 0 1 324.5 477 L 324.5 489  A 3.5 3.5 0 0 1 321 492.5 L 302 492.5  A 3.5 3.5 0 0 1 298.5 489 L 298.5 477  Z " stroke-width="1" stroke-dasharray="3,1" stroke="#d9d9d9" fill="none" stroke-dashoffset="0.5" />
  </g>
</svg>