<?xml version="1.0" encoding="utf-8"?>
<svg version="1.1" xmlns:xlink="http://www.w3.org/1999/xlink" width="89px" height="20px" xmlns="http://www.w3.org/2000/svg">
  <defs>
    <mask fill="white" id="clip26">
      <path d="M 0 16  L 0 4  C 0 1.75999999999999  1.39857142857142 0  3.17857142857143 0  L 70.0473111658457 0  L 85.8214285714286 0  C 87.6014285714286 0  89 1.75999999999999  89 4  L 89 16  C 89 18.24  87.6014285714286 20  85.8214285714286 20  L 65.9370894909688 20  L 3.17857142857143 20  C 1.39857142857142 20  0 18.24  0 16  Z " fill-rule="evenodd" />
    </mask>
  </defs>
  <g transform="matrix(1 0 0 1 -219 -441 )">
    <path d="M 0 16  L 0 4  C 0 1.75999999999999  1.39857142857142 0  3.17857142857143 0  L 70.0473111658457 0  L 85.8214285714286 0  C 87.6014285714286 0  89 1.75999999999999  89 4  L 89 16  C 89 18.24  87.6014285714286 20  85.8214285714286 20  L 65.9370894909688 20  L 3.17857142857143 20  C 1.39857142857142 20  0 18.24  0 16  Z " fill-rule="nonzero" fill="#f5f5f5" stroke="none" transform="matrix(1 0 0 1 219 441 )" />
    <path d="M 0 16  L 0 4  C 0 1.75999999999999  1.39857142857142 0  3.17857142857143 0  L 70.0473111658457 0  L 85.8214285714286 0  C 87.6014285714286 0  89 1.75999999999999  89 4  L 89 16  C 89 18.24  87.6014285714286 20  85.8214285714286 20  L 65.9370894909688 20  L 3.17857142857143 20  C 1.39857142857142 20  0 18.24  0 16  Z " stroke-width="2" stroke="#d9d9d9" fill="none" transform="matrix(1 0 0 1 219 441 )" mask="url(#clip26)" />
  </g>
</svg>