<?xml version="1.0" encoding="utf-8"?>
<svg version="1.1" xmlns:xlink="http://www.w3.org/1999/xlink" width="30px" height="23px" xmlns="http://www.w3.org/2000/svg">
  <g transform="matrix(1 0 0 1 -57 -76 )">
    <path d="M 14.4580078125 16.6136067708333  C 14.8193359375 16.1893446180556  15 15.6577690972222  15 15.0188802083333  C 15 14.3799913194444  14.9560546875 13.7935112847222  14.8681640625 13.2594401041667  C 14.7802734375 12.7253689236111  14.63623046875 12.2112630208333  14.43603515625 11.7171223958333  C 14.23583984375 11.2229817708333  13.9404296875 10.8336588541667  13.5498046875 10.5491536458333  C 13.1591796875 10.2646484375  12.685546875 10.1223958333333  12.12890625 10.1223958333333  C 12.0703125 10.1623263888889  11.923828125 10.2521701388889  11.689453125 10.3919270833333  C 11.455078125 10.5316840277778  11.27197265625 10.6389973958333  11.14013671875 10.7138671875  C 11.00830078125 10.7887369791667  10.8349609375 10.8760850694444  10.6201171875 10.9759114583333  C 10.4052734375 11.0757378472222  10.1953125 11.1481119791667  9.990234375 11.1930338541667  C 9.78515625 11.2379557291667  9.580078125 11.2604166666667  9.375 11.2604166666667  C 9.169921875 11.2604166666667  8.96484375 11.2379557291667  8.759765625 11.1930338541667  C 8.5546875 11.1481119791667  8.3447265625 11.0757378472222  8.1298828125 10.9759114583333  C 7.9150390625 10.8760850694444  7.74169921875 10.7887369791667  7.60986328125 10.7138671875  C 7.47802734375 10.6389973958333  7.294921875 10.5316840277778  7.060546875 10.3919270833333  C 6.826171875 10.2521701388889  6.6796875 10.1623263888889  6.62109375 10.1223958333333  C 6.064453125 10.1223958333333  5.5908203125 10.2646484375  5.2001953125 10.5491536458333  C 4.8095703125 10.8336588541667  4.51416015625 11.2229817708333  4.31396484375 11.7171223958333  C 4.11376953125 12.2112630208333  3.9697265625 12.7253689236111  3.8818359375 13.2594401041667  C 3.7939453125 13.7935112847222  3.75 14.3799913194444  3.75 15.0188802083333  C 3.75 15.6577690972222  3.9306640625 16.1893446180556  4.2919921875 16.6136067708333  C 4.6533203125 17.0378689236111  5.09765625 17.25  5.625 17.25  L 13.125 17.25  C 13.65234375 17.25  14.0966796875 17.0378689236111  14.4580078125 16.6136067708333  Z M 11.72607421875 9.6357421875  C 12.37548828125 8.97189670138889  12.7001953125 8.17078993055555  12.7001953125 7.232421875  C 12.7001953125 6.29405381944444  12.37548828125 5.49294704861111  11.72607421875 4.8291015625  C 11.07666015625 4.16525607638889  10.29296875 3.83333333333333  9.375 3.83333333333333  C 8.45703125 3.83333333333333  7.67333984375 4.16525607638889  7.02392578125 4.8291015625  C 6.37451171875 5.49294704861111  6.0498046875 6.29405381944444  6.0498046875 7.232421875  C 6.0498046875 8.17078993055555  6.37451171875 8.97189670138889  7.02392578125 9.6357421875  C 7.67333984375 10.2995876736111  8.45703125 10.6315104166667  9.375 10.6315104166667  C 10.29296875 10.6315104166667  11.07666015625 10.2995876736111  11.72607421875 9.6357421875  Z M 26.1181640625 15.1985677083333  C 26.2060546875 15.1087239583333  26.25 14.9939236111111  26.25 14.8541666666667  L 26.25 13.8958333333333  C 26.25 13.7560763888889  26.2060546875 13.6412760416667  26.1181640625 13.5514322916667  C 26.0302734375 13.4615885416667  25.91796875 13.4166666666667  25.78125 13.4166666666667  L 17.34375 13.4166666666667  C 17.20703125 13.4166666666667  17.0947265625 13.4615885416667  17.0068359375 13.5514322916667  C 16.9189453125 13.6412760416667  16.875 13.7560763888889  16.875 13.8958333333333  L 16.875 14.8541666666667  C 16.875 14.9939236111111  16.9189453125 15.1087239583333  17.0068359375 15.1985677083333  C 17.0947265625 15.2884114583333  17.20703125 15.3333333333333  17.34375 15.3333333333333  L 25.78125 15.3333333333333  C 25.91796875 15.3333333333333  26.0302734375 15.2884114583333  26.1181640625 15.1985677083333  Z M 26.09619140625 11.3427734375  C 26.19873046875 11.2379557291667  26.25 11.1106770833333  26.25 10.9609375  L 26.25 10.1223958333333  C 26.25 9.97265625  26.19873046875 9.84537760416667  26.09619140625 9.74055989583333  C 25.99365234375 9.6357421875  25.869140625 9.58333333333333  25.72265625 9.58333333333333  L 17.40234375 9.58333333333333  C 17.255859375 9.58333333333333  17.13134765625 9.6357421875  17.02880859375 9.74055989583333  C 16.92626953125 9.84537760416667  16.875 9.97265625  16.875 10.1223958333333  L 16.875 10.9609375  C 16.875 11.1106770833333  16.92626953125 11.2379557291667  17.02880859375 11.3427734375  C 17.13134765625 11.4475911458333  17.255859375 11.5  17.40234375 11.5  L 25.72265625 11.5  C 25.869140625 11.5  25.99365234375 11.4475911458333  26.09619140625 11.3427734375  Z M 26.1181640625 7.53190104166667  C 26.2060546875 7.44205729166667  26.25 7.32725694444444  26.25 7.1875  L 26.25 6.22916666666667  C 26.25 6.08940972222222  26.2060546875 5.974609375  26.1181640625 5.884765625  C 26.0302734375 5.794921875  25.91796875 5.75  25.78125 5.75  L 17.34375 5.75  C 17.20703125 5.75  17.0947265625 5.794921875  17.0068359375 5.884765625  C 16.9189453125 5.974609375  16.875 6.08940972222222  16.875 6.22916666666667  L 16.875 7.1875  C 16.875 7.32725694444444  16.9189453125 7.44205729166667  17.0068359375 7.53190104166667  C 17.0947265625 7.62174479166667  17.20703125 7.66666666666667  17.34375 7.66666666666667  L 25.78125 7.66666666666667  C 25.91796875 7.66666666666667  26.0302734375 7.62174479166667  26.1181640625 7.53190104166667  Z M 29.3115234375 0.703776041666668  C 29.7705078125 1.17296006944444  30 1.73697916666667  30 2.39583333333333  L 30 20.6041666666667  C 30 21.2630208333333  29.7705078125 21.8270399305556  29.3115234375 22.2962239583333  C 28.8525390625 22.7654079861111  28.30078125 23  27.65625 23  L 22.5 23  L 22.5 21.5625  C 22.5 21.4227430555556  22.4560546875 21.3079427083333  22.3681640625 21.2180989583333  C 22.2802734375 21.1282552083333  22.16796875 21.0833333333333  22.03125 21.0833333333333  L 21.09375 21.0833333333333  C 20.95703125 21.0833333333333  20.8447265625 21.1282552083333  20.7568359375 21.2180989583333  C 20.6689453125 21.3079427083333  20.625 21.4227430555556  20.625 21.5625  L 20.625 23  L 9.375 23  L 9.375 21.5625  C 9.375 21.4227430555556  9.3310546875 21.3079427083333  9.2431640625 21.2180989583333  C 9.1552734375 21.1282552083333  9.04296875 21.0833333333333  8.90625 21.0833333333333  L 7.96875 21.0833333333333  C 7.83203125 21.0833333333333  7.7197265625 21.1282552083333  7.6318359375 21.2180989583333  C 7.5439453125 21.3079427083333  7.5 21.4227430555556  7.5 21.5625  L 7.5 23  L 2.34375 23  C 1.69921875 23  1.1474609375 22.7654079861111  0.6884765625 22.2962239583333  C 0.2294921875 21.8270399305556  0 21.2630208333333  0 20.6041666666667  L 0 2.39583333333333  C 0 1.73697916666667  0.2294921875 1.17296006944444  0.6884765625 0.703776041666668  C 1.1474609375 0.234592013888887  1.69921875 0  2.34375 0  L 27.65625 0  C 28.30078125 0  28.8525390625 0.234592013888887  29.3115234375 0.703776041666668  Z " fill-rule="nonzero" fill="#f5f5f5" stroke="none" transform="matrix(1 0 0 1 57 76 )" />
  </g>
</svg>